<svg version="1" xmlns="http://www.w3.org/2000/svg" width="517.333" height="517.333" viewBox="0 0 388.000000 388.000000"><path d="M175.3 1.1C127.1 5.7 81.9 28.6 49.8 64.5c-45.4 50.7-61 121-41.3 185.9C31.2 325.2 96.8 379.1 174.9 387c98.5 9.9 189.2-56.9 209.1-154.2 10.6-52-1.2-107.8-31.8-150.7-18.7-26.2-41.7-46-70.2-60.5-33.5-17-70.2-24.1-106.7-20.5zm48.2 70.3C247.4 77.4 266 88 283 105c17.6 17.5 29.1 38.7 34.5 63 2.5 11.6 3 33.5 1.1 45.5-5.9 35.4-25.8 66.3-55.6 85.9-41.5 27.3-96.5 27.3-138 0-35.6-23.4-57-63-57-105.4 0-54.2 34.6-102.2 86.1-119.4 15.9-5.4 24.7-6.6 43.4-6.1 12.9.3 17.9.8 26 2.9z"/></svg>